#!OML:ASF H:\LiuWeirdWalks\Patient Classification 1\Patient 1\Session 1\male.ASF
:FULLY-SPECIFIED
:DEGREES
2418
root 0.692216 17.6801 -31.0201 183.955 -180.767 177.951
lowerback 2.99593 -1.54368 -2.09629
upperback -3.14376 -2.00437 4.00741
thorax -4.72678 -0.849155 5.49584
lowerneck -17.5552 3.42398 2.93944
upperneck 19.5723 5.38628 -6.24349
head 9.3242 2.04371 -1.92572
rclavicle 1.10698e-014 -3.33958e-014
rhumerus -32.6684 -4.46264 -78.2675
rradius 25.8755
rwrist -4.40008
rhand -17.5193 -4.00308
rfingers 7.12502
rthumb 8.73419 -33.8024
lclavicle 1.10698e-014 -3.33958e-014
lhumerus -38.777 15.1346 80.1078
lradius 28.5725
lwrist 6.97952
lhand -13.9739 2.21697
lfingers 7.12502
lthumb 12.1543 31.8439
rfemur -10.2646 -0.289059 19.7839
rtibia 34.7982
rfoot -18.8712 -19.8516
rtoes -4.11697
lfemur -13.3263 1.02355 -20.9812
ltibia 34.5347
lfoot -16.4001 17.5904
ltoes -7.89094
2419
root 0.695877 17.6795 -31.0199 183.954 -180.773 177.982
lowerback 2.98983 -1.53085 -2.11087
upperback -3.10183 -1.99012 3.97392
thorax -4.68148 -0.84395 5.46614
lowerneck -17.6679 3.36314 2.85816
upperneck 19.6036 5.3036 -6.15599
head 9.34648 2.00586 -1.89225
rclavicle 1.60146e-014 7.95139e-015
rhumerus -32.5974 -4.55382 -78.283
rradius 25.876
rwrist -4.38253
rhand -17.5261 -4.01503
rfingers 7.12502
rthumb 8.72768 -33.8146
lclavicle 1.60146e-014 7.95139e-015
lhumerus -38.6833 15.1275 80.1122
lradius 28.4739
lwrist 6.91468
lhand -13.9462 2.21707
lfingers 7.12502
lthumb 12.181 31.8424
rfemur -10.2687 -0.30864 19.7332
rtibia 34.8182
rfoot -18.8917 -19.8385
rtoes -4.11712
lfemur -13.3143 1.0126 -21.0315
ltibia 34.5191
lfoot -16.3948 17.6011
ltoes -7.87202
2420
root 0.699697 17.6787 -31.0188 183.945 -180.761 178.007
lowerback 2.96856 -1.52411 -2.1256
upperback -3.07255 -1.98331 3.95074
thorax -4.63967 -0.841984 5.44772
lowerneck -17.6955 3.34559 2.85704
upperneck 19.6092 5.27752 -6.14844
head 9.35187 1.99378 -1.89277
rclavicle -3.57688e-014 2.94201e-014
rhumerus -32.5678 -4.58189 -78.304
rradius 25.8859
rwrist -4.38881
rhand -17.529 -4.02952
rfingers 7.12502
rthumb 8.72484 -33.8292
lclavicle -3.57688e-014 2.94201e-014
lhumerus -38.6541 15.147 80.1013
lradius 28.3895
lwrist 6.86754
lhand -13.9106 2.23517
lfingers 7.12502
lthumb 12.2153 31.8585
rfemur -10.2603 -0.315068 19.6864
rtibia 34.8329
rfoot -18.9105 -19.8224
rtoes -4.11999
lfemur -13.2887 1.00246 -21.078
ltibia 34.5051
lfoot -16.3971 17.6278
ltoes -7.86024
2421
root 0.703701 17.6777 -31.0168 183.926 -180.73 178.02
lowerback 2.93889 -1.51057 -2.12721
upperback -3.03323 -1.96668 3.93153
thorax -4.5839 -0.835993 5.42478
lowerneck -17.7154 3.32424 2.85157
upperneck 19.6045 5.2485 -6.148
head 9.35223 1.97955 -1.89544
rclavicle -1.26601e-014 -9.54166e-015
rhumerus -32.5368 -4.60164 -78.3253
rradius 25.9006
rwrist -4.40784
rhand -17.5301 -4.03699
rfingers 7.12502
rthumb 8.72377 -33.8367
lclavicle -1.26601e-014 -9.54166e-015
lhumerus -38.6202 15.1748 80.0914
lradius 28.3004
lwrist 6.81353
lhand -13.8636 2.19129
lfingers 7.12502
lthumb 12.2606 31.8119
rfemur -10.2377 -0.305008 19.6516
rtibia 34.8413
rfoot -18.9269 -19.8024
rtoes -4.12354
lfemur -13.2484 0.991102 -21.1135
ltibia 34.4932
lfoot -16.4058 17.6736
ltoes -7.84668
2422
root 0.707853 17.6767 -31.0144 183.903 -180.7 178.029
lowerback 2.90958 -1.49617 -2.12236
upperback -2.99905 -1.94842 3.91298
thorax -4.53409 -0.829148 5.39898
lowerneck -17.7342 3.32268 2.85334
upperneck 19.5845 5.24197 -6.13831
head 9.34812 1.97771 -1.89296
rclavicle 1.73937e-014 -2.38542e-014
rhumerus -32.5218 -4.61784 -78.3449
rradius 25.9154
rwrist -4.43279
rhand -17.5321 -4.04282
rfingers 7.12502
rthumb 8.72192 -33.8426
lclavicle 1.73937e-014 -2.38542e-014
lhumerus -38.5995 15.1941 80.0813
lradius 28.2142
lwrist 6.77267
lhand -13.8082 2.15206
lfingers 7.12502
lthumb 12.314 31.7695
rfemur -10.2064 -0.295652 19.6214
rtibia 34.8446
rfoot -18.9426 -19.7851
rtoes -4.13189
lfemur -13.2029 0.971284 -21.1446
ltibia 34.4828
lfoot -16.4173 17.726
ltoes -7.82745
2423
root 0.712022 17.6757 -31.0121 183.879 -180.679 178.034
lowerback 2.89367 -1.48216 -2.11541
upperback -2.97741 -1.93031 3.8958
thorax -4.50504 -0.821698 5.37443
lowerneck -17.7189 3.31692 2.85777
upperneck 19.5549 5.22971 -6.13268
head 9.33431 1.97381 -1.8934
rclavicle 1.74558e-014 -3.65764e-014
rhumerus -32.5323 -4.6282 -78.3605
rradius 25.9338
rwrist -4.46915
rhand -17.5345 -4.04363
rfingers 7.12502
rthumb 8.71959 -33.8435
lclavicle 1.74558e-014 -3.65764e-014
lhumerus -38.5954 15.2057 80.0686
lradius 28.125
lwrist 6.71751
lhand -13.7553 2.07903
lfingers 7.12502
lthumb 12.365 31.6934
rfemur -10.1709 -0.288955 19.5964
rtibia 34.8422
rfoot -18.9522 -19.7718
rtoes -4.14029
lfemur -13.1602 0.942603 -21.1712
ltibia 34.4772
lfoot -16.4297 17.7803
ltoes -7.80869
2424
root 0.715879 17.6749 -31.0105 183.862 -180.671 178.031
lowerback 2.8957 -1.4707 -2.10446
upperback -2.97357 -1.91499 3.88194
thorax -4.50454 -0.814722 5.35259
lowerneck -17.6793 3.31112 2.86953
upperneck 19.522 5.2163 -6.13023
head 9.31512 1.97013 -1.89653
rclavicle 9.46712e-015 -1.66979e-014
rhumerus -32.5663 -4.64533 -78.3679
rradius 25.9483
rwrist -4.49954
rhand -17.5259 -4.03755
rfingers 7.12502
rthumb 8.72782 -33.8371
lclavicle 9.46712e-015 -1.66979e-014
lhumerus -38.6119 15.212 80.0498
lradius 28.0354
lwrist 6.64835
lhand -13.7075 1.98396
lfingers 7.12502
lthumb 12.4111 31.5955
rfemur -10.1423 -0.277357 19.5855
rtibia 34.8366
rfoot -18.9563 -19.7752
rtoes -4.14487
lfemur -13.1327 0.91332 -21.1853
ltibia 34.4763
lfoot -16.4387 17.8216
ltoes -7.78199
2425
root 0.719519 17.6745 -31.01 183.863 -180.666 178.011
lowerback 2.90664 -1.45796 -2.08406
upperback -2.99085 -1.89684 3.87456
thorax -4.5316 -0.805531 5.33306
lowerneck -17.6104 3.30194 2.88586
upperneck 19.4824 5.19758 -6.13039
head 9.2882 1.96473 -1.90229
rclavicle 1.28216e-014 2.38542e-015
rhumerus -32.6252 -4.66177 -78.3668
rradius 25.9611
rwrist -4.52628
rhand -17.5148 -4.0219
rfingers 7.12502
rthumb 8.73862 -33.821
lclavicle 1.28216e-014 2.38542e-015
lhumerus -38.6503 15.2115 80.0282
lradius 27.9531
lwrist 6.56772
lhand -13.6676 1.94242
lfingers 7.12502
lthumb 12.4496 31.5516
rfemur -10.1386 -0.250837 19.5968
rtibia 34.8278
rfoot -18.9505 -19.7933
rtoes -4.14569
lfemur -13.1363 0.879111 -21.1807
ltibia 34.4829
lfoot -16.4432 17.8633
ltoes -7.75982
2426
root 0.723085 17.6744 -31.0103 183.879 -180.672 178.001
lowerback 2.92455 -1.45348 -2.0789
upperback -3.02196 -1.89014 3.87191
thorax -4.57529 -0.80085 5.32861
lowerneck -17.5166 3.29621 2.90148
upperneck 19.4379 5.18703 -6.1436
head 9.2558 1.96221 -1.91155
rclavicle 1.51325e-014 1.19271e-014
rhumerus -32.6816 -4.67252 -78.3589
rradius 25.9571
rwrist -4.53288
rhand -17.4948 -3.99798
rfingers 7.12502
rthumb 8.75785 -33.7963
lclavicle 1.51325e-014 1.19271e-014
lhumerus -38.708 15.2363 79.9983
lradius 27.8778
lwrist 6.4725
lhand -13.6346 1.93102
lfingers 7.12502
lthumb 12.4815 31.5383
rfemur -10.1525 -0.226845 19.5985
rtibia 34.8185
rfoot -18.9437 -19.8155
rtoes -4.14084
lfemur -13.1627 0.842723 -21.1864
ltibia 34.4944
lfoot -16.4437 17.8978
ltoes -7.74894
2427
root 0.726142 17.6747 -31.0117 183.909 -180.705 177.987
lowerback 2.94796 -1.46249 -2.07892
upperback -3.06062 -1.90123 3.87992
thorax -4.62771 -0.804354 5.33994
lowerneck -17.4275 3.29898 2.91866
upperneck 19.3938 5.19136 -6.1717
head 9.22576 1.965 -1.92415
rclavicle -2.13445e-014 7.95139e-015
rhumerus -32.7208 -4.68948 -78.3403
rradius 25.9306
rwrist -4.50997
rhand -17.4781 -3.97215
rfingers 7.12502
rthumb 8.77398 -33.7698
lclavicle -2.13445e-014 7.95139e-015
lhumerus -38.7785 15.2834 79.9697
lradius 27.8196
lwrist 6.3812
lhand -13.6149 1.94619
lfingers 7.12502
lthumb 12.5005 31.5523
rfemur -10.1812 -0.202571 19.6117
rtibia 34.8096
rfoot -18.9393 -19.8619
rtoes -4.1324
lfemur -13.2128 0.804617 -21.1827
ltibia 34.5094
lfoot -16.4391 17.9088
ltoes -7.73274
2428
root 0.728911 17.675 -31.0136 183.943 -180.77 177.986
lowerback 2.96949 -1.47499 -2.09218
upperback -3.10002 -1.91802 3.87937
thorax -4.67908 -0.810403 5.35012
lowerneck -17.3329 3.27692 2.90442
upperneck 19.3574 5.16331 -6.16995
head 9.19397 1.95359 -1.92568
rclavicle -7.72775e-015 1.03368e-014
rhumerus -32.7603 -4.7404 -78.3165
rradius 25.8981
rwrist -4.47455
rhand -17.4786 -3.9688
rfingers 7.12502
rthumb 8.7735 -33.7664
lclavicle -7.72775e-015 1.03368e-014
lhumerus -38.8365 15.2999 79.9485
lradius 27.7674
lwrist 6.32049
lhand -13.6053 2.00847
lfingers 7.12502
lthumb 12.5097 31.614
rfemur -10.2137 -0.196151 19.6137
rtibia 34.8041
rfoot -18.9422 -19.9209
rtoes -4.11732
lfemur -13.2713 0.757944 -21.1903
ltibia 34.5218
lfoot -16.43 17.8988
ltoes -7.71014
